<svg xmlns="http://www.w3.org/2000/svg" viewBox="0 0 24 24"><path fill="#2D98D4" d="M3 1l-.82 5h15.983l-.257 2H1.845l-.634 4H17.05l-.522 3.542L9.65 17.73l-4.093-1.592L5.923 14H.888L0 19.5 9.5 23 21 19.488 24 1z"/><path fill="#010101" d="M18.206 5.75H2.22l-.04.25h15.982zM17.09 11.75H1.25l-.039.25H17.05zM21.043 19.225L9.5 22.75.038 19.264 0 19.5 9.5 23 21 19.488z" opacity=".1"/><path fill="#FFF" d="M2.959 1.25h21L24 1H3z" opacity=".2"/><linearGradient id="a" x1="1.065" x2="22.931" y1="5.151" y2="15.347" gradientUnits="userSpaceOnUse"><stop offset="0" stop-color="#FFF" stop-opacity=".2"/><stop offset="1" stop-color="#FFF" stop-opacity="0"/></linearGradient><path fill="url(#a)" d="M3 1l-.82 5h15.983l-.257 2H1.845l-.634 4H17.05l-.522 3.542L9.65 17.73l-4.093-1.592L5.923 14H.888L0 19.5 9.5 23 21 19.488 24 1z"/></svg>